<svg width="100" height="100" viewBox="0 0 100 100" fill="none" xmlns="http://www.w3.org/2000/svg">
  <rect width="100" height="100" fill="#FFFFFF"/>
  <circle cx="5" cy="5" r="1" fill="#FF6F00" fill-opacity="0.2"/>
  <circle cx="15" cy="5" r="1" fill="#FF6F00" fill-opacity="0.2"/>
  <circle cx="25" cy="5" r="1" fill="#FF6F00" fill-opacity="0.2"/>
  <circle cx="35" cy="5" r="1" fill="#FF6F00" fill-opacity="0.2"/>
  <circle cx="45" cy="5" r="1" fill="#FF6F00" fill-opacity="0.2"/>
  <circle cx="55" cy="5" r="1" fill="#FF6F00" fill-opacity="0.2"/>
  <circle cx="65" cy="5" r="1" fill="#FF6F00" fill-opacity="0.2"/>
  <circle cx="75" cy="5" r="1" fill="#FF6F00" fill-opacity="0.2"/>
  <circle cx="85" cy="5" r="1" fill="#FF6F00" fill-opacity="0.2"/>
  <circle cx="95" cy="5" r="1" fill="#FF6F00" fill-opacity="0.2"/>
  
  <circle cx="5" cy="15" r="1" fill="#FF6F00" fill-opacity="0.2"/>
  <circle cx="15" cy="15" r="1" fill="#FF6F00" fill-opacity="0.2"/>
  <circle cx="25" cy="15" r="1" fill="#FF6F00" fill-opacity="0.2"/>
  <circle cx="35" cy="15" r="1" fill="#FF6F00" fill-opacity="0.2"/>
  <circle cx="45" cy="15" r="1" fill="#FF6F00" fill-opacity="0.2"/>
  <circle cx="55" cy="15" r="1" fill="#FF6F00" fill-opacity="0.2"/>
  <circle cx="65" cy="15" r="1" fill="#FF6F00" fill-opacity="0.2"/>
  <circle cx="75" cy="15" r="1" fill="#FF6F00" fill-opacity="0.2"/>
  <circle cx="85" cy="15" r="1" fill="#FF6F00" fill-opacity="0.2"/>
  <circle cx="95" cy="15" r="1" fill="#FF6F00" fill-opacity="0.2"/>
  
  <circle cx="5" cy="25" r="1" fill="#FF6F00" fill-opacity="0.2"/>
  <circle cx="15" cy="25" r="1" fill="#FF6F00" fill-opacity="0.2"/>
  <circle cx="25" cy="25" r="1" fill="#FF6F00" fill-opacity="0.2"/>
  <circle cx="35" cy="25" r="1" fill="#FF6F00" fill-opacity="0.2"/>
  <circle cx="45" cy="25" r="1" fill="#FF6F00" fill-opacity="0.2"/>
  <circle cx="55" cy="25" r="1" fill="#FF6F00" fill-opacity="0.2"/>
  <circle cx="65" cy="25" r="1" fill="#FF6F00" fill-opacity="0.2"/>
  <circle cx="75" cy="25" r="1" fill="#FF6F00" fill-opacity="0.2"/>
  <circle cx="85" cy="25" r="1" fill="#FF6F00" fill-opacity="0.2"/>
  <circle cx="95" cy="25" r="1" fill="#FF6F00" fill-opacity="0.2"/>
  
  <line x1="10" y1="30" x2="30" y2="50" stroke="#FF6F00" stroke-opacity="0.1" stroke-width="0.5"/>
  <line x1="30" y1="10" x2="50" y2="30" stroke="#FF6F00" stroke-opacity="0.1" stroke-width="0.5"/>
  <line x1="50" y1="70" x2="70" y2="90" stroke="#FF6F00" stroke-opacity="0.1" stroke-width="0.5"/>
  <line x1="70" y1="40" x2="90" y2="60" stroke="#FF6F00" stroke-opacity="0.1" stroke-width="0.5"/>
  <line x1="40" y1="80" x2="20" y2="60" stroke="#FF6F00" stroke-opacity="0.1" stroke-width="0.5"/>
  <line x1="80" y1="20" x2="60" y2="40" stroke="#FF6F00" stroke-opacity="0.1" stroke-width="0.5"/>
</svg> 