<svg width="32" height="32" viewBox="0 0 32 32" fill="none" xmlns="http://www.w3.org/2000/svg">
  <circle cx="16" cy="16" r="16" fill="#FF6F00"/>
  <path d="M8 10C8 10 10 9 16 9C22 9 24 10 24 10V20C24 20 22 22 16 22C10 22 8 20 8 20V10Z" fill="white"/>
  <circle cx="12" cy="15" r="1.5" fill="#333"/>
  <circle cx="20" cy="15" r="1.5" fill="#333"/>
  <path d="M13 18C13 18 14 19 16 19C18 19 19 18 19 18" stroke="#333" stroke-width="1.5" stroke-linecap="round"/>
  <path d="M9 10L11 7" stroke="#FF6F00" stroke-width="1.5" stroke-linecap="round"/>
  <path d="M23 10L21 7" stroke="#FF6F00" stroke-width="1.5" stroke-linecap="round"/>
</svg> 